<svg xmlns="http://www.w3.org/2000/svg" viewBox="0 0 24 24" fill="currentColor">
  <path d="M19.14 12.94c.04-.31.06-.63.06-.94s-.02-.63-.06-.94l2.03-1.58a.5.5 0 0 0 .12-.64l-1.92-3.32a.5.5 0 0 0-.6-.22l-2.39.96a7.007 7.007 0 0 0-1.62-.94l-.36-2.54A.5.5 0 0 0 13.5 2h-3a.5.5 0 0 0-.5.42l-.36 2.54c-.57.22-1.1.5-1.62.84l-2.39-.96a.5.5 0 0 0-.6.22L2.7 8.48a.5.5 0 0 0 .12.64L4.85 10.7c-.04.31-.06.63-.06.94s.02.63.06.94L2.82 14.16a.5.5 0 0 0-.12.64l1.92 3.32c.15.26.46.36.72.27l2.39-.96c.5.34 1.05.62 1.62.84l.36 2.54c.06.27.29.42.5.42h3c.21 0 .44-.15.5-.42l.36-2.54c.57-.22 1.12-.5 1.62-.84l2.39.96c.26.09.57-.01.72-.27l1.92-3.32a.5.5 0 0 0-.12-.64l-2.03-1.58zM12 15.5A3.5 3.5 0 1 1 12 8.5a3.5 3.5 0 0 1 0 7z"/>
</svg>
